<svg width="12" height="12" viewBox="0 0 12 12" fill="none" xmlns="http://www.w3.org/2000/svg">
<path fill-rule="evenodd" clip-rule="evenodd" d="M2.65839 0.64304C2.94173 0.701602 3.16738 0.891971 3.30757 1.14349L3.75418 1.94471C3.91868 2.23981 4.05712 2.48815 4.14753 2.70404C4.24343 2.93305 4.30039 3.15888 4.27435 3.40856C4.24831 3.65824 4.14599 3.86746 4.0049 4.07175C3.8719 4.26434 3.6852 4.47878 3.46335 4.73359L2.34942 6.0131C3.23284 7.46109 4.53731 8.76615 5.98678 9.65047L7.2663 8.53654C7.52111 8.31469 7.73555 8.12799 7.92814 7.99499C8.13243 7.8539 8.34165 7.75157 8.59133 7.72554C8.84101 7.6995 9.06684 7.75646 9.29585 7.85236C9.51174 7.94277 9.76008 8.08121 10.0552 8.24571L10.8564 8.69231C11.1079 8.83251 11.2983 9.05816 11.3568 9.3415C11.416 9.6278 11.3287 9.91558 11.136 10.1521C10.4365 11.0103 9.31587 11.5567 8.14026 11.3195C7.41763 11.1738 6.70464 10.9309 5.84228 10.4364C4.10961 9.44267 2.55607 7.88827 1.56353 6.15761C1.06897 5.29525 0.826116 4.58226 0.680344 3.85963C0.443196 2.68401 0.989613 1.56338 1.84779 0.863923C2.08431 0.671152 2.37209 0.583866 2.65839 0.64304ZM6.68535 10.0367C7.26854 10.3241 7.77578 10.4809 8.28857 10.5844C9.13659 10.7554 9.99272 10.3676 10.5546 9.67826C10.6284 9.58774 10.6288 9.52456 10.6224 9.49331C10.6153 9.4591 10.5867 9.40061 10.4912 9.34742L9.70799 8.91083C9.39017 8.73367 9.17858 8.61636 9.00615 8.54415C8.84247 8.47561 8.74854 8.46321 8.66912 8.47149C8.5897 8.47977 8.50035 8.51128 8.35434 8.61212C8.20051 8.71836 8.01768 8.8768 7.74325 9.11571L6.68535 10.0367ZM1.96318 5.31454L2.88417 4.25664C3.12309 3.98221 3.28153 3.79938 3.38777 3.64555C3.48861 3.49953 3.52011 3.41019 3.5284 3.33077C3.53668 3.25135 3.52428 3.15742 3.45574 2.99374C3.38353 2.82131 3.26622 2.60972 3.08906 2.2919L2.65247 1.50864C2.59928 1.41322 2.54079 1.38459 2.50658 1.37752C2.47533 1.37106 2.41214 1.37151 2.32163 1.44528C1.63224 2.00717 1.24447 2.8633 1.41553 3.71132C1.51898 4.22411 1.67582 4.73135 1.96318 5.31454Z" fill="white"/>
</svg>
