<svg width="24" height="24" viewBox="0 0 24 24" fill="none" xmlns="http://www.w3.org/2000/svg">
<path d="M20.4555 3.54456L22.9695 4.04706C23.1045 4.07406 23.2155 4.17306 23.2545 4.30656C23.2742 4.37141 23.276 4.44038 23.2596 4.50615C23.2432 4.57192 23.2093 4.63201 23.1615 4.68006L21.102 6.74106C20.8552 6.98645 20.5215 7.12446 20.1735 7.12506H18.465L14.175 11.4166C14.2568 11.7256 14.2719 12.0485 14.2192 12.3638C14.1664 12.6791 14.0471 12.9796 13.8691 13.2451C13.6911 13.5107 13.4586 13.7353 13.1871 13.904C12.9155 14.0726 12.6111 14.1815 12.2941 14.2233C11.9772 14.2651 11.655 14.2389 11.349 14.1464C11.043 14.0539 10.7602 13.8972 10.5194 13.6868C10.2787 13.4765 10.0856 13.2172 9.95291 12.9264C9.82023 12.6355 9.75106 12.3197 9.75 12.0001C9.74993 11.6548 9.82931 11.3141 9.98201 11.0045C10.1347 10.6948 10.3566 10.4245 10.6306 10.2143C10.9045 10.0042 11.2232 9.8599 11.5618 9.79266C11.9005 9.72542 12.25 9.73702 12.5835 9.82656L16.875 5.53356V3.82806C16.875 3.48006 17.013 3.14556 17.259 2.89956L19.32 0.838556C19.368 0.79075 19.4281 0.756857 19.4939 0.740481C19.5597 0.724105 19.6286 0.725859 19.6935 0.745556C19.827 0.784556 19.926 0.895556 19.953 1.03056L20.4555 3.54456Z" fill="#26A9E0"/>
<path d="M3.00001 11.9999C3.00155 13.2869 3.27907 14.5585 3.81386 15.7291C4.34865 16.8997 5.12826 17.9419 6.1001 18.7856C7.07194 19.6292 8.21341 20.2546 9.44751 20.6196C10.6816 20.9846 11.9796 21.0807 13.254 20.9014C14.5284 20.7221 15.7495 20.2715 16.835 19.5801C17.9204 18.8888 18.845 17.9726 19.5463 16.8936C20.2476 15.8145 20.7093 14.5976 20.9003 13.3249C21.0913 12.0522 21.0072 10.7533 20.6535 9.51594C20.6039 9.37138 20.5841 9.21822 20.5956 9.06579C20.607 8.91337 20.6493 8.76486 20.72 8.62931C20.7906 8.49377 20.8881 8.37402 21.0065 8.27736C21.125 8.1807 21.2618 8.10914 21.4088 8.06706C21.5557 8.02497 21.7097 8.01323 21.8613 8.03255C22.0129 8.05187 22.159 8.10185 22.2907 8.17944C22.4224 8.25703 22.537 8.36061 22.6274 8.48387C22.7177 8.60714 22.7821 8.74751 22.8165 8.89644C23.5013 11.2927 23.3712 13.8486 22.4467 16.1629C21.5222 18.4773 19.8555 20.4193 17.7081 21.6843C15.5608 22.9492 13.0543 23.4655 10.5818 23.1521C8.10939 22.8388 5.81092 21.7136 4.04701 19.9529C2.28502 18.1895 1.15857 15.8908 0.844515 13.4178C0.530457 10.9448 1.04658 8.43747 2.31184 6.28955C3.57711 4.14164 5.51987 2.47474 7.8351 1.55055C10.1503 0.626372 12.7069 0.497244 15.1035 1.18344C15.3889 1.26686 15.6296 1.45985 15.7731 1.72022C15.9166 1.9806 15.9512 2.2872 15.8694 2.57301C15.7875 2.85882 15.5958 3.10061 15.3363 3.24554C15.0767 3.39046 14.7703 3.42674 14.484 3.34644C13.1439 2.96162 11.7326 2.89342 10.3616 3.14724C8.99063 3.40107 7.69735 3.96996 6.5838 4.80905C5.47025 5.64814 4.56688 6.73448 3.94495 7.98239C3.32302 9.2303 2.99953 10.6056 3.00001 11.9999Z" fill="#26A9E0"/>
<path d="M7.50001 12C7.5001 12.8199 7.72404 13.6242 8.14766 14.3261C8.57129 15.0281 9.17852 15.6011 9.90387 15.9833C10.6292 16.3655 11.4452 16.5424 12.2637 16.4949C13.0822 16.4475 13.8722 16.1775 14.5485 15.714C15.2247 15.2493 15.761 14.6087 16.0994 13.8613C16.4378 13.1139 16.5655 12.2882 16.4685 11.4735C16.4423 11.2758 16.4692 11.0747 16.5466 10.8908C16.6239 10.707 16.7489 10.5471 16.9085 10.4277C17.0682 10.3082 17.2568 10.2334 17.455 10.211C17.6532 10.1887 17.8537 10.2196 18.036 10.3005C18.2183 10.3803 18.376 10.5071 18.4933 10.6679C18.6106 10.8286 18.6831 11.0176 18.7035 11.2155C18.8665 12.6076 18.5921 14.016 17.9183 15.2451C17.2445 16.4742 16.2048 17.463 14.9435 18.0744C13.6822 18.6858 12.2619 18.8894 10.8797 18.6569C9.49742 18.4244 8.22183 17.7673 7.22996 16.777C6.23809 15.7866 5.57912 14.512 5.34452 13.1301C5.10992 11.7482 5.31133 10.3276 5.92079 9.06538C6.53025 7.80315 7.51754 6.76197 8.74561 6.08633C9.97368 5.41069 11.3816 5.13411 12.774 5.29498C12.9231 5.30881 13.0679 5.35227 13.2 5.4228C13.3321 5.49333 13.4488 5.58952 13.5432 5.70573C13.6376 5.82194 13.7079 5.95583 13.7499 6.09955C13.7919 6.24327 13.8048 6.39393 13.7878 6.54269C13.7709 6.69146 13.7244 6.83535 13.6511 6.96591C13.5777 7.09647 13.4791 7.21109 13.3609 7.30304C13.2428 7.39499 13.1074 7.46243 12.9629 7.5014C12.8183 7.54037 12.6674 7.55008 12.519 7.52998C11.8885 7.45677 11.2496 7.51778 10.6444 7.709C10.0391 7.90022 9.48115 8.21733 9.00714 8.63949C8.53313 9.06165 8.15379 9.57932 7.89404 10.1585C7.63429 10.7377 7.50001 11.3652 7.50001 12Z" fill="#26A9E0"/>
</svg>
